<?xml version="1.0" standalone="no"?>
<!DOCTYPE svg PUBLIC "-//W3C//DTD SVG 20010904//EN"
 "http://www.w3.org/TR/2001/REC-SVG-20010904/DTD/svg10.dtd">
<svg version="1.0" xmlns="http://www.w3.org/2000/svg"
 width="160.000000pt" height="160.000000pt" viewBox="0 0 160.000000 160.000000"
 preserveAspectRatio="xMidYMid meet">
<metadata>
Created by potrace 1.14, written by Peter Selinger 2001-2017
</metadata>
<g transform="translate(0.000000,160.000000) scale(0.100000,-0.100000)"
fill="#000000" stroke="none">
<path d="M278 1366 c-108 -37 -174 -94 -230 -201 -35 -68 -39 -82 -42 -180 -4
-114 32 -208 111 -291 21 -23 57 -61 79 -86 23 -26 52 -52 65 -58 40 -21 60
-42 50 -54 -4 -6 -13 -26 -19 -43 l-11 -33 58 0 c32 0 60 -2 63 -6 3 -3 -3
-23 -13 -44 -11 -21 -19 -41 -19 -43 0 -2 77 -4 171 -4 146 0 172 3 176 16 3
9 17 40 30 70 14 30 26 61 27 68 1 7 8 19 14 25 7 7 12 18 12 25 0 7 16 -5 37
-28 20 -22 56 -52 80 -66 23 -13 43 -28 43 -33 0 -4 -7 -24 -15 -43 -8 -20
-15 -38 -15 -41 0 -2 19 -4 43 -4 79 1 77 1 62 -30 -35 -72 -44 -67 140 -67
91 1 169 5 174 10 12 13 65 141 156 375 41 107 79 202 83 210 4 8 8 26 8 40
-1 21 -6 25 -28 24 -28 -1 -33 5 -42 60 -3 16 -9 32 -14 35 -4 3 -17 20 -27
37 -11 17 -36 50 -55 74 -131 161 -180 190 -342 196 -112 4 -177 -11 -252 -59
l-48 -31 -57 61 c-31 34 -69 70 -86 81 -98 63 -245 79 -367 38z"/>
</g>
</svg>
