<?xml version="1.0" standalone="no"?>
<!DOCTYPE svg PUBLIC "-//W3C//DTD SVG 20010904//EN"
 "http://www.w3.org/TR/2001/REC-SVG-20010904/DTD/svg10.dtd">
<svg version="1.0" xmlns="http://www.w3.org/2000/svg"
 width="144.000000pt" height="144.000000pt" viewBox="0 0 144.000000 144.000000"
 preserveAspectRatio="xMidYMid meet">
<metadata>
Created by potrace 1.14, written by Peter Selinger 2001-2017
</metadata>
<g transform="translate(0.000000,144.000000) scale(0.100000,-0.100000)"
fill="#000000" stroke="none">
<path d="M444 1105 c-27 -6 -65 -20 -84 -29 -44 -23 -113 -93 -105 -106 3 -6
2 -10 -3 -10 -21 0 -49 -111 -44 -180 4 -60 42 -156 75 -193 30 -33 72 -59
140 -86 l27 -11 -19 -50 c-10 -27 -16 -52 -12 -55 16 -9 201 -9 209 0 5 6 19
38 32 72 13 34 28 59 32 57 5 -3 6 -9 3 -13 -6 -11 63 -91 79 -91 8 0 25 -9
39 -20 14 -11 35 -20 46 -20 30 0 34 -19 16 -69 -8 -24 -15 -46 -15 -50 0 -10
208 -7 218 4 5 6 17 33 26 60 10 28 24 64 31 80 7 17 27 68 45 115 18 47 37
96 43 110 23 57 31 141 16 186 -14 45 -98 123 -160 149 -61 26 -155 30 -206 9
-18 -7 -33 -11 -33 -8 0 3 -9 0 -19 -5 -16 -9 -22 -6 -37 17 -73 111 -210 167
-340 137z"/>
</g>
</svg>
